<?xml version="1.0" encoding="UTF-8" standalone="no"?>

<svg xmlns="http://www.w3.org/2000/svg" width="250" height="250" version="1.1">
  <defs id="defs1">
    <filter id="filter1">
      <feGaussianBlur id="feGaussianBlur1" stdDeviation="0.34" />
    </filter>
    <filter id="filter2">
      <feGaussianBlur id="feGaussianBlur2" stdDeviation="0.34" />
    </filter>
  </defs>
  <g id="g0" transform="matrix(5,0,0,5,9.54,9.54)">
    <g id="g1" style="fill:#c6c6c6;stroke:none">
      <path id="path11" d="m 3.5,3.5 12,0 0,9.333333 -12,0 z m 0,10.333333 12,0 0,9.333333 -12,0 z m 0,10.333333 12,0 0,9.333333 -12,0 z" />
      <path id="path12" d="m 32.5,14.5 12,0 0,9.333333 -12,0 z m 0,10.333333 12,0 0,9.333333 -12,0 z m 0,10.333333 12,0 0,9.333333 -12,0 z" />
    </g>
    <g id="g2" transform="translate(-1,-1)" style="fill:none;stroke:#808080;stroke-width:1;filter:url(#filter1)">
      <path id="path21" d="m 0.5,0.5 3,0 0,36 -3,0 z m 0,3 3,0 m -3,3 3,0 m -3,3 3,0 m -3,3 3,0 m -3,3 3,0 m -3,3 3,0 m -3,3 3,0 m -3,3 3,0 m -3,3 3,0 m -3,3 3,0 m -3,3 3,0" />
      <path id="path22" d="m 15.5,0.5 3,0 0,36 -3,0 z m 0,3 3,0 m -3,3 3,0 m -3,3 3,0 m -3,3 3,0 m -3,3 3,0 m -3,3 3,0 m -3,3 3,0 m -3,3 3,0 m -3,3 3,0 m -3,3 3,0 m -3,3 3,0" />
      <path id="path23" style="stroke-width:2" d="m 4,3 11,0 m -11,10.333333 11,0 m -11,10.333333 11,0 m -11,10.333333 11,0" />
      <path id="path24" d="m 29.5,11.5 3,0 0,36 -3,0 z m 0,3 3,0 m -3,3 3,0 m -3,3 3,0 m -3,3 3,0 m -3,3 3,0 m -3,3 3,0 m -3,3 3,0 m -3,3 3,0 m -3,3 3,0 m -3,3 3,0 m -3,3 3,0" />
      <path id="path25" d="m 44.5,11.5 3,0 0,36 -3,0 z m 0,3 3,0 m -3,3 3,0 m -3,3 3,0 m -3,3 3,0 m -3,3 3,0 m -3,3 3,0 m -3,3 3,0 m -3,3 3,0 m -3,3 3,0 m -3,3 3,0 m -3,3 3,0" />
      <path id="path26" style="stroke-width:2" d="m 33,14 11,0 m -11,10.333333 11,0 m -11,10.333333 11,0 m -11,10.333333 11,0" />
    </g>
    <g id="g3" style="fill:none;stroke:#000000;stroke-width:1">
      <path id="path31" d="m 0.5,0.5 3,0 0,36 -3,0 z m 0,3 3,0 m -3,3 3,0 m -3,3 3,0 m -3,3 3,0 m -3,3 3,0 m -3,3 3,0 m -3,3 3,0 m -3,3 3,0 m -3,3 3,0 m -3,3 3,0 m -3,3 3,0" />
      <path id="path32" d="m 15.5,0.5 3,0 0,36 -3,0 z m 0,3 3,0 m -3,3 3,0 m -3,3 3,0 m -3,3 3,0 m -3,3 3,0 m -3,3 3,0 m -3,3 3,0 m -3,3 3,0 m -3,3 3,0 m -3,3 3,0 m -3,3 3,0" />
      <path id="path33" style="stroke-width:2" d="m 4,3 11,0 m -11,10.333333 11,0 m -11,10.333333 11,0 m -11,10.333333 11,0" />
      <path id="path34" d="m 29.5,11.5 3,0 0,36 -3,0 z m 0,3 3,0 m -3,3 3,0 m -3,3 3,0 m -3,3 3,0 m -3,3 3,0 m -3,3 3,0 m -3,3 3,0 m -3,3 3,0 m -3,3 3,0 m -3,3 3,0 m -3,3 3,0" />
      <path id="path35" d="m 44.5,11.5 3,0 0,36 -3,0 z m 0,3 3,0 m -3,3 3,0 m -3,3 3,0 m -3,3 3,0 m -3,3 3,0 m -3,3 3,0 m -3,3 3,0 m -3,3 3,0 m -3,3 3,0 m -3,3 3,0 m -3,3 3,0" />
      <path id="path36" style="stroke-width:2" d="m 33,14 11,0 m -11,10.333333 11,0 m -11,10.333333 11,0 m -11,10.333333 11,0" />
    </g>
    <g id="g4">
      <path id="path41" style="fill:#c6c6c6;stroke:#000000;stroke-width:1" d="m 20.5,6.5 0,5.5 c -0.884706,0.25743 -1.739396,0.595329 -2.53125,1.03125 l -3.875,-3.875 -4.9375,4.9375 3.875,3.875 C 12.595329,18.760604 12.25743,19.615294 12,20.5 l -5.5,0 0,7 5.5,0 c 0.25743,0.884706 0.595329,1.739396 1.03125,2.53125 l -3.875,3.875 4.9375,4.9375 3.875,-3.875 C 18.760604,35.404671 19.615294,35.74257 20.5,36 l 0,5.5 7,0 0,-5.5 c 0.884706,-0.25743 1.739396,-0.595329 2.53125,-1.03125 l 3.875,3.875 4.9375,-4.9375 -3.875,-3.875 C 35.404671,29.239396 35.74257,28.384706 36,27.5 l 5.5,0 0,-7 -5.5,0 c -0.25743,-0.884706 -0.595329,-1.739396 -1.03125,-2.53125 l 3.875,-3.875 -4.9375,-4.9375 -3.875,3.875 C 29.239396,12.595329 28.384706,12.25743 27.5,12 l 0,-5.5 -7,0 z m 3.5,11 c 3.589851,0 6.5,2.910149 6.5,6.5 0,3.589851 -2.910149,6.5 -6.5,6.5 -3.589851,0 -6.5,-2.910149 -6.5,-6.5 0,-3.589851 2.910149,-6.5 6.5,-6.5 z" />
      <path id="path42" style="fill:#ffffff;stroke:none;filter:url(#filter2)" d="M 21 7 L 21 12 L 21 12.375 L 20.625 12.46875 C 19.770046 12.717523 18.973074 13.053489 18.21875 13.46875 L 17.875 13.65625 L 17.625 13.375 L 14.09375 9.84375 L 9.84375 14.09375 L 10.375 14.625 L 14.5 10.53125 L 18.03125 14.0625 L 18.28125 14.34375 L 18.625 14.15625 C 19.379324 13.740989 20.176296 13.405023 21.03125 13.15625 L 21.40625 13.0625 L 21.40625 12.6875 L 21.40625 7.6875 L 27 7.6875 L 27 7 L 21 7 z M 33.90625 9.84375 L 30.375 13.375 L 30.125 13.65625 L 29.78125 13.46875 C 29.035326 13.058113 28.250408 12.716672 27.40625 12.46875 L 27.40625 12.6875 L 27.40625 13.0625 L 27.78125 13.15625 C 28.636204 13.405023 29.433176 13.740989 30.1875 14.15625 L 30.53125 14.34375 L 30.78125 14.0625 L 34.3125 10.53125 L 38 14.25 L 38.15625 14.09375 L 33.90625 9.84375 z M 13.53125 18.0625 L 13.46875 18.21875 C 13.053489 18.973074 12.717523 19.770046 12.46875 20.625 L 12.375 21 L 12 21 L 7 21 L 7 27 L 7.40625 27 L 7.40625 21.6875 L 12.40625 21.6875 L 12.78125 21.6875 L 12.875 21.3125 C 13.123773 20.457546 13.459739 19.660574 13.875 18.90625 L 14.0625 18.5625 L 13.78125 18.3125 L 13.53125 18.0625 z M 30.28125 20.90625 C 30.741409 21.838331 31 22.892035 31 24 C 31 27.860071 27.860071 31 24 31 C 21.587456 31 19.446665 29.768551 18.1875 27.90625 C 19.352939 30.156091 21.702212 31.6875 24.40625 31.6875 C 28.266321 31.6875 31.40625 28.547571 31.40625 24.6875 C 31.40625 23.293479 30.986304 21.998455 30.28125 20.90625 z M 35.8125 21 C 35.847734 21.109117 35.90519 21.201461 35.9375 21.3125 L 36.03125 21.6875 L 36.40625 21.6875 L 41 21.6875 L 41 21 L 36 21 L 35.8125 21 z M 12.5625 27.6875 C 12.799374 28.424941 13.104587 29.119746 13.46875 29.78125 L 13.65625 30.125 L 13.375 30.375 L 9.84375 33.90625 L 10.375 34.4375 L 13.78125 31.0625 L 14.0625 30.8125 L 13.875 30.46875 C 13.459739 29.714426 13.123773 28.917454 12.875 28.0625 L 12.78125 27.6875 L 12.5625 27.6875 z M 34.875 30.625 L 34.75 30.8125 L 35.03125 31.0625 L 38 34.0625 L 38.15625 33.90625 L 34.875 30.625 z M 21 36.21875 L 21 41 L 21.40625 41 L 21.40625 36.6875 L 21.40625 36.3125 L 21.03125 36.21875 C 21.021729 36.21598 21.009506 36.221542 21 36.21875 z" />
      <path id="path43" style="fill:#000000;stroke:none;filter:url(#filter2)" d="m 26.59375,7 0,4.40625 0,0.375 0.375,0.09375 c 0.0095,0.0028 0.02174,-0.0028 0.03125,0 L 27,7 26.59375,7 z m 11.0625,6.59375 -3.4375,3.4375 -0.28125,0.25 0.1875,0.34375 c 0.415261,0.754324 0.751227,1.551296 1,2.40625 l 0.09375,0.375 0.25,0 c -0.241059,-0.772657 -0.557846,-1.497856 -0.9375,-2.1875 l -0.1875,-0.34375 0.28125,-0.25 3.53125,-3.53125 -0.5,-0.5 z M 9.9375,14 9.84375,14.09375 13.1875,17.4375 13.25,17.28125 12.96875,17.03125 9.9375,14 z m 13.65625,2.40625 c -3.860071,0 -7,3.139929 -7,7 0,1.576055 0.524062,3.016254 1.40625,4.1875 C 17.367613,26.542013 17,25.314159 17,24 c 0,-3.860071 3.139929,-7 7,-7 2.354599,0 4.418025,1.181318 5.6875,2.96875 -1.202558,-2.126507 -3.481154,-3.5625 -6.09375,-3.5625 z m 17,4.59375 0,5.40625 -5,0 -0.375,0 -0.09375,0.375 c -0.248773,0.854954 -0.584739,1.651926 -1,2.40625 l -0.1875,0.34375 0.28125,0.25 0.1875,0.1875 0.125,-0.1875 c 0.415261,-0.754324 0.751227,-1.551296 1,-2.40625 L 35.625,27 36,27 l 5,0 0,-6 -0.40625,0 z M 7,26.40625 7,27 l 5,0 0.125,0 c -0.02261,-0.07247 -0.04117,-0.145441 -0.0625,-0.21875 l -0.09375,-0.375 -0.375,0 -4.59375,0 z m 30.65625,7 L 33.5,37.5625 29.96875,34.03125 29.71875,33.75 29.375,33.9375 c -0.754324,0.415261 -1.551296,0.751227 -2.40625,1 l -0.375,0.09375 0,0.375 0,5 -5.59375,0 0,0.59375 6,0 0,-5 0,-0.375 0.375,-0.09375 c 0.854954,-0.248773 1.651926,-0.584739 2.40625,-1 l 0.34375,-0.1875 0.25,0.28125 3.53125,3.53125 4.25,-4.25 -0.5,-0.5 z m -20.1875,0.34375 -0.25,0.28125 -3.53125,3.53125 -3.75,-3.75 -0.09375,0.09375 4.25,4.25 3.53125,-3.53125 0.25,-0.28125 0.34375,0.1875 c 0.745924,0.410637 1.530842,0.752078 2.375,1 l 0,-0.125 0,-0.375 -0.375,-0.09375 c -0.854954,-0.248773 -1.651926,-0.584739 -2.40625,-1 L 17.46875,33.75 z" />
      <path id="path44" style="fill:none;stroke:#000000;stroke-width:1" d="m 20.5,6.5 0,5.5 c -0.884706,0.25743 -1.739396,0.595329 -2.53125,1.03125 l -3.875,-3.875 -4.9375,4.9375 3.875,3.875 C 12.595329,18.760604 12.25743,19.615294 12,20.5 l -5.5,0 0,7 5.5,0 c 0.25743,0.884706 0.595329,1.739396 1.03125,2.53125 l -3.875,3.875 4.9375,4.9375 3.875,-3.875 C 18.760604,35.404671 19.615294,35.74257 20.5,36 l 0,5.5 7,0 0,-5.5 c 0.884706,-0.25743 1.739396,-0.595329 2.53125,-1.03125 l 3.875,3.875 4.9375,-4.9375 -3.875,-3.875 C 35.404671,29.239396 35.74257,28.384706 36,27.5 l 5.5,0 0,-7 -5.5,0 c -0.25743,-0.884706 -0.595329,-1.739396 -1.03125,-2.53125 l 3.875,-3.875 -4.9375,-4.9375 -3.875,3.875 C 29.239396,12.595329 28.384706,12.25743 27.5,12 l 0,-5.5 -7,0 z m 3.5,11 c 3.589851,0 6.5,2.910149 6.5,6.5 0,3.589851 -2.910149,6.5 -6.5,6.5 -3.589851,0 -6.5,-2.910149 -6.5,-6.5 0,-3.589851 2.910149,-6.5 6.5,-6.5 z" />
    </g>
  </g>
</svg>